<svg width="24" height="24" viewBox="0 0 24 24" fill="none" xmlns="http://www.w3.org/2000/svg">
<path opacity="0.4" d="M16.884 5.115H13.941C13.5792 5.11756 13.2213 5.03925 12.8936 4.88579C12.566 4.73232 12.2767 4.50759 12.047 4.228L11.078 2.888C10.8524 2.60599 10.5652 2.37934 10.2385 2.22542C9.91174 2.07151 9.55412 1.9944 9.193 2H7.113C3.378 2 2 4.192 2 7.919V11.947C2 12.39 22 12.389 22 11.947V10.776C22.015 7.049 20.672 5.115 16.884 5.115Z" fill="#1890FF"/>
<path d="M16.367 21.999C16.267 21.999 16.16 21.999 16.058 21.991H7.931C7.831 21.996 7.731 21.999 7.624 21.999C6.11832 22.0005 4.6668 21.4375 3.556 20.421C3.29782 20.1541 3.07377 19.8561 2.889 19.534C2.48405 18.8664 2.21806 18.1239 2.107 17.351C2.03547 16.914 1.99968 16.4718 2 16.029V10.776C1.9999 10.337 2.0236 9.89839 2.071 9.462C2.081 9.386 2.096 9.311 2.111 9.238C2.13947 9.11658 2.15589 8.99265 2.16 8.868C2.25009 8.34167 2.41474 7.83086 2.649 7.351C3.353 5.846 4.808 5.114 7.095 5.114H16.875C17.008 5.104 17.144 5.098 17.275 5.098C18.4445 5.10008 19.5797 5.49327 20.5 6.215C20.6187 6.31528 20.7287 6.42533 20.829 6.544C21.1492 6.91769 21.3965 7.34814 21.558 7.813C21.8794 8.76676 22.029 9.76997 22 10.776V16.029C21.9977 16.4715 21.9643 16.9132 21.9 17.351C21.7792 18.1241 21.5074 18.8659 21.1 19.534C20.9128 19.8569 20.6857 20.1549 20.424 20.421C19.3178 21.4378 17.8695 22.0011 16.367 21.999V21.999ZM6.967 13.889C6.85859 13.889 6.75125 13.9104 6.65109 13.9518C6.55094 13.9933 6.45994 14.0541 6.38328 14.1308C6.30663 14.2074 6.24582 14.2984 6.20434 14.3986C6.16285 14.4987 6.1415 14.6061 6.1415 14.7145C6.1415 14.8229 6.16285 14.9303 6.20434 15.0304C6.24582 15.1306 6.30663 15.2216 6.38328 15.2982C6.45994 15.3749 6.55094 15.4357 6.65109 15.4772C6.75125 15.5186 6.85859 15.54 6.967 15.54H17.09C17.3045 15.5398 17.5105 15.4563 17.6644 15.307C17.8184 15.1577 17.9082 14.9544 17.915 14.74C17.9281 14.546 17.8646 14.3546 17.738 14.207C17.6657 14.1094 17.5719 14.0299 17.4639 13.9745C17.3558 13.9192 17.2364 13.8896 17.115 13.888L6.967 13.889Z" fill="#1890FF"/>
</svg>
