<svg width="23" height="26" viewBox="0 0 23 26" fill="none" xmlns="http://www.w3.org/2000/svg">
<path d="M16.414 25.499H5.836C4.43697 25.5129 3.08955 24.9713 2.08924 23.9931C1.08894 23.015 0.517407 21.68 0.5 20.281L0.5 14.111C0.517144 12.7118 1.08856 11.3766 2.08889 10.3982C3.08923 9.4198 4.4368 8.87812 5.836 8.892H16.414C17.8132 8.87812 19.1608 9.4198 20.1611 10.3982C21.1614 11.3766 21.7329 12.7118 21.75 14.111V20.282C21.7323 21.6808 21.1607 23.0155 20.1604 23.9935C19.1601 24.9715 17.8129 25.5129 16.414 25.499V25.499ZM11.114 14.729C10.8251 14.7274 10.5472 14.8402 10.3411 15.0427C10.135 15.2452 10.0174 15.5211 10.014 15.81V18.568C10.014 18.8627 10.1311 19.1452 10.3394 19.3536C10.5478 19.5619 10.8303 19.679 11.125 19.679C11.4197 19.679 11.7022 19.5619 11.9106 19.3536C12.1189 19.1452 12.236 18.8627 12.236 18.568V15.811C12.231 15.5196 12.1106 15.2421 11.9011 15.0394C11.6917 14.8367 11.4104 14.7255 11.119 14.73L11.114 14.729Z" fill="#1890FF"/>
<path opacity="0.4" d="M18.029 7.245V9.083C17.573 8.95751 17.102 8.89493 16.629 8.897H15.803V7.245C15.7882 6.01992 15.2882 4.8507 14.4125 3.9938C13.5369 3.1369 12.3571 2.66226 11.132 2.674C9.90893 2.65979 8.72986 3.12972 7.85185 3.98131C6.97385 4.83289 6.46815 5.99707 6.445 7.22V8.9H5.632C5.15464 8.89575 4.67935 8.96317 4.222 9.1V7.245C4.24547 5.43929 4.98269 3.71627 6.27259 2.45242C7.56248 1.18857 9.30018 0.486638 11.106 0.500003C12.0037 0.487315 12.895 0.651829 13.729 0.984125C14.563 1.31642 15.3233 1.80997 15.9663 2.43651C16.6093 3.06305 17.1223 3.81027 17.4761 4.63539C17.8299 5.4605 18.0174 6.3473 18.028 7.245" fill="#1890FF"/>
</svg>
