<svg width="26" height="24" viewBox="0 0 26 24" fill="none" xmlns="http://www.w3.org/2000/svg">
<g clip-path="url(#clip0_14:65)">
<path opacity="0.4" d="M25.5 16.676C25.5045 18.3485 24.8447 19.9543 23.6655 21.1404C22.4864 22.3264 20.8845 22.9957 19.212 23.001H6.813C5.14053 23.0023 3.536 22.3394 2.35216 21.158C1.16833 19.9766 0.502121 18.3735 0.5 16.701L0.5 16.688C0.5 16.688 0.508 11.156 0.518 8.373C0.517665 8.25574 0.550433 8.14076 0.612537 8.04129C0.67464 7.94181 0.763557 7.86189 0.869063 7.8107C0.974569 7.75952 1.09238 7.73915 1.20895 7.75194C1.32551 7.76473 1.4361 7.81016 1.528 7.883C4.5 10.24 9.809 14.536 9.875 14.592C10.7729 15.3098 11.8875 15.7021 13.037 15.705C14.1895 15.7038 15.3064 15.3058 16.2 14.578C16.266 14.534 21.459 10.367 24.474 7.972C24.5659 7.89894 24.6765 7.85323 24.7931 7.84011C24.9098 7.82698 25.0278 7.84698 25.1336 7.8978C25.2394 7.94862 25.3288 8.02821 25.3914 8.12746C25.4541 8.22672 25.4876 8.34162 25.488 8.459C25.5 11.221 25.5 16.676 25.5 16.676Z" fill="#1890FF"/>
<path d="M24.845 3.842C24.3092 2.83309 23.509 1.98902 22.53 1.40028C21.5511 0.81154 20.4303 0.500325 19.288 0.5L6.813 0.5C5.67048 0.500143 4.54956 0.811273 3.57042 1.40002C2.59128 1.98878 1.79086 2.83294 1.255 3.842C1.13669 4.06347 1.09933 4.31927 1.14934 4.56532C1.19936 4.81138 1.33362 5.03229 1.529 5.19L10.81 12.614C11.4397 13.1233 12.2252 13.4007 13.035 13.4H13.06C13.8698 13.4007 14.6553 13.1233 15.285 12.614L24.569 5.19C24.7647 5.03256 24.8994 4.81177 24.9497 4.5657C25.0001 4.31963 24.9631 4.06369 24.845 3.842" fill="#1890FF"/>
</g>
<defs>
<clipPath id="clip0_14:65">
<rect width="26" height="23.501" fill="white"/>
</clipPath>
</defs>
</svg>
