<svg width="24" height="26" viewBox="0 0 24 26" fill="none" xmlns="http://www.w3.org/2000/svg">
<path opacity="0.4" d="M21.304 9.861C21.304 9.946 20.638 18.372 20.257 21.918C20.2272 22.8828 19.8162 23.7965 19.1141 24.4589C18.412 25.1213 17.4759 25.4784 16.511 25.452C14.894 25.488 13.311 25.501 11.754 25.501C10.101 25.501 8.484 25.489 6.914 25.452C5.96308 25.4569 5.04786 25.0902 4.36342 24.43C3.67898 23.7699 3.27945 22.8685 3.25 21.918C2.859 18.359 2.205 9.946 2.192 9.861C2.17817 9.60572 2.26343 9.35495 2.43 9.161C2.51305 9.06983 2.61419 8.99696 2.72696 8.94703C2.83973 8.8971 2.96167 8.87121 3.085 8.871H20.424C20.5471 8.87302 20.6685 8.89993 20.7809 8.95011C20.8933 9.0003 20.9943 9.07271 21.078 9.163C21.161 9.25834 21.2239 9.36953 21.2627 9.48984C21.3016 9.61016 21.3156 9.73711 21.304 9.863" fill="#1890FF"/>
<path d="M23 5.471C23.0021 5.35222 22.9807 5.2342 22.937 5.12375C22.8933 5.01329 22.8281 4.91258 22.7453 4.82743C22.6625 4.74227 22.5636 4.67436 22.4544 4.6276C22.3452 4.58084 22.2278 4.55617 22.109 4.555H18.464C18.0993 4.55162 17.7468 4.42377 17.4647 4.19262C17.1826 3.96147 16.988 3.64089 16.913 3.284L16.713 2.373C16.5787 1.8415 16.2721 1.36946 15.8412 1.0306C15.4102 0.691748 14.8792 0.505165 14.331 0.5L9.17 0.5C8.6125 0.50712 8.07359 0.701517 7.63992 1.05193C7.20625 1.40235 6.90303 1.88842 6.779 2.432L6.588 3.284C6.51283 3.64071 6.3181 3.96105 6.03605 4.19201C5.75399 4.42296 5.40153 4.55067 5.037 4.554H1.392C1.27304 4.55504 1.15547 4.57965 1.04608 4.62641C0.936691 4.67317 0.837659 4.74115 0.754709 4.82642C0.67176 4.9117 0.606539 5.01257 0.56282 5.12321C0.5191 5.23385 0.497748 5.35206 0.5 5.471V5.946C0.498635 6.18522 0.591421 6.41538 0.758317 6.58677C0.925214 6.75815 1.15283 6.85701 1.392 6.862H22.109C22.348 6.85676 22.5754 6.75778 22.742 6.58642C22.9087 6.41506 23.0014 6.18505 23 5.946V5.471Z" fill="#1890FF"/>
</svg>
