<svg width="20" height="25" viewBox="0 0 20 25" fill="none" xmlns="http://www.w3.org/2000/svg">
<g clip-path="url(#clip0_14:61)">
<path d="M10 16.469C4.605 16.469 0 17.319 0 20.719C0 24.119 4.576 25 10 25C15.391 25 20 24.151 20 20.75C20 17.349 15.417 16.469 10 16.469Z" fill="#1890FF"/>
<path opacity="0.4" d="M9.996 13.23C11.3043 13.23 12.5833 12.842 13.6711 12.1152C14.7589 11.3883 15.6068 10.3552 16.1075 9.14645C16.6081 7.93772 16.7391 6.60766 16.4839 5.32448C16.2287 4.0413 15.5986 2.86262 14.6735 1.93749C13.7484 1.01237 12.5697 0.38235 11.2865 0.127108C10.0033 -0.128133 8.67328 0.00286615 7.46455 0.50354C6.25582 1.00421 5.2227 1.85207 4.49583 2.93991C3.76897 4.02774 3.381 5.30668 3.381 6.615C3.37783 7.48459 3.54677 8.3462 3.87808 9.1502C4.20939 9.9542 4.69653 10.6847 5.31142 11.2996C5.92631 11.9145 6.6568 12.4016 7.4608 12.7329C8.2648 13.0642 9.12642 13.2332 9.996 13.23" fill="#1890FF"/>
</g>
<defs>
<clipPath id="clip0_14:61">
<rect width="19.992" height="25" fill="white"/>
</clipPath>
</defs>
</svg>
