<svg width="28" height="20" viewBox="0 0 28 20" fill="none" xmlns="http://www.w3.org/2000/svg">
<g clip-path="url(#clip0_14:34)">
<path d="M13.686 13.175C9.374 13.175 5.735 13.875 5.735 16.599C5.735 19.323 9.397 19.999 13.686 19.999C17.998 19.999 21.637 19.299 21.637 16.575C21.637 13.851 17.975 13.175 13.686 13.175Z" fill="#1890FF"/>
<path opacity="0.4" d="M13.687 10.584C14.3807 10.5844 15.0675 10.4476 15.7081 10.1814C16.3487 9.91524 16.9302 9.52497 17.4193 9.03309C17.9084 8.5412 18.2954 7.95742 18.5579 7.31536C18.8204 6.6733 18.9534 5.98564 18.949 5.292C18.949 3.89643 18.3946 2.55802 17.4078 1.5712C16.421 0.584386 15.0826 0.0299988 13.687 0.0299988C12.2914 0.0299988 10.953 0.584386 9.9662 1.5712C8.97939 2.55802 8.425 3.89643 8.425 5.292C8.42065 5.98564 8.55356 6.6733 8.81609 7.31536C9.07862 7.95742 9.46557 8.5412 9.95467 9.03309C10.4438 9.52497 11.0253 9.91524 11.6659 10.1814C12.3065 10.4476 12.9933 10.5844 13.687 10.584Z" fill="#1890FF"/>
<path opacity="0.4" d="M25.11 6.524C25.2897 5.86368 25.3153 5.17091 25.1848 4.49914C25.0544 3.82736 24.7713 3.19453 24.3576 2.64945C23.9438 2.10438 23.4104 1.66163 22.7984 1.35536C22.1864 1.04908 21.5123 0.887475 20.828 0.882996C20.5307 0.883916 20.2343 0.9144 19.943 0.973996C19.9033 0.9821 19.8679 1.00408 19.843 1.036C19.8327 1.05819 19.8289 1.08285 19.8321 1.10711C19.8353 1.13137 19.8453 1.15422 19.861 1.173C20.7325 2.4036 21.1991 3.87506 21.196 5.383C21.202 6.82744 20.7735 8.24031 19.966 9.438C19.9482 9.46568 19.9375 9.49734 19.9349 9.53014C19.9323 9.56295 19.9378 9.5959 19.9509 9.62607C19.9641 9.65624 19.9845 9.68269 20.0103 9.70309C20.0361 9.72349 20.0666 9.73719 20.099 9.743C20.2973 9.77736 20.4978 9.79708 20.699 9.802C21.6975 9.839 22.6787 9.53435 23.4807 8.93837C24.2827 8.34239 24.8574 7.49072 25.11 6.524" fill="#1890FF"/>
<path d="M27.262 13.521C26.9783 13.0593 26.5896 12.671 26.1276 12.3878C25.6656 12.1045 25.1432 11.9343 24.603 11.891C23.2662 11.6302 21.9058 11.5105 20.544 11.534C20.5345 11.5347 20.5254 11.5384 20.5181 11.5445C20.5107 11.5506 20.5055 11.5588 20.503 11.568C20.5015 11.5806 20.5042 11.5933 20.5107 11.6042C20.5172 11.615 20.5272 11.6234 20.539 11.628C21.297 12.005 24.226 13.645 23.858 17.104C23.8529 17.1386 23.8559 17.1739 23.8668 17.2071C23.8776 17.2403 23.896 17.2706 23.9205 17.2955C23.9451 17.3204 23.975 17.3393 24.0081 17.3506C24.0411 17.362 24.0763 17.3655 24.111 17.361C24.832 17.261 26.686 16.861 27.262 15.608C27.4191 15.2826 27.5007 14.9259 27.5007 14.5645C27.5007 14.2031 27.4191 13.8464 27.262 13.521" fill="#1890FF"/>
<path opacity="0.4" d="M7.55599 0.974995C7.26451 0.914724 6.96765 0.884234 6.66999 0.883995C5.98587 0.888733 5.31197 1.05055 4.70029 1.35696C4.0886 1.66336 3.55546 2.10618 3.142 2.65125C2.72853 3.19631 2.44579 3.82907 2.31559 4.5007C2.18538 5.17234 2.21118 5.86491 2.391 6.52499C2.64303 7.49087 3.21678 8.34197 4.01759 8.9379C4.8184 9.53383 5.79843 9.83897 6.79599 9.80299C6.99714 9.79757 7.19765 9.77785 7.396 9.74399C7.42839 9.73819 7.45886 9.72449 7.48469 9.70409C7.51052 9.68369 7.53092 9.65724 7.54407 9.62707C7.55723 9.5969 7.56274 9.56395 7.56011 9.53114C7.55748 9.49833 7.54679 9.46668 7.529 9.439C6.71015 8.21145 6.28254 6.76457 6.30253 5.28912C6.32252 3.81366 6.78919 2.3789 7.641 1.174C7.657 1.15542 7.66739 1.13267 7.67093 1.10841C7.67447 1.08414 7.67103 1.05937 7.661 1.037C7.63661 1.00453 7.60092 0.982399 7.561 0.974995" fill="#1890FF"/>
<path d="M2.9 11.89C2.35939 11.9328 1.83654 12.1027 1.3741 12.386C0.911661 12.6693 0.522721 13.0578 0.238997 13.52C0.0817199 13.8456 3.05176e-05 14.2024 3.05176e-05 14.564C3.05176e-05 14.9256 0.0817199 15.2824 0.238997 15.608C0.814997 16.856 2.669 17.258 3.39 17.36C3.42462 17.3646 3.45983 17.3611 3.49284 17.3497C3.52586 17.3383 3.55578 17.3194 3.58023 17.2945C3.60468 17.2695 3.62299 17.2393 3.63371 17.206C3.64443 17.1728 3.64727 17.1375 3.642 17.103C3.274 13.645 6.2 12.005 6.961 11.628C6.97335 11.6236 6.98389 11.6152 6.99095 11.6042C6.99802 11.5931 7.0012 11.5801 7 11.567C6.99788 11.5573 6.9924 11.5487 6.98453 11.5426C6.97666 11.5366 6.96691 11.5335 6.957 11.534C5.59592 11.51 4.2361 11.6293 2.9 11.89" fill="#1890FF"/>
</g>
<defs>
<clipPath id="clip0_14:34">
<rect width="27.5" height="20" fill="white"/>
</clipPath>
</defs>
</svg>
