<svg width="24" height="24" viewBox="0 0 24 24" fill="none" xmlns="http://www.w3.org/2000/svg">
<path d="M16.517 21H7.484C6.00592 21.0773 4.55681 20.5697 3.45 19.587C2.95514 19.0634 2.57151 18.4449 2.3223 17.769C2.07308 17.093 1.96345 16.3735 2 15.654V8.338C1.96316 7.61914 2.07259 6.90028 2.32165 6.22493C2.57072 5.54959 2.95424 4.93181 3.449 4.409C4.55713 3.42827 6.00625 2.92224 7.484 3H16.514C17.9914 2.92229 19.4402 3.42833 20.548 4.409C21.0433 4.9316 21.4273 5.54927 21.6769 6.22462C21.9265 6.89996 22.0364 7.61893 22 8.338V8.375H17.762C16.8279 8.36696 15.9285 8.72845 15.2598 9.38068C14.5911 10.0329 14.2073 10.923 14.192 11.857C14.1911 12.3173 14.2831 12.773 14.4625 13.1969C14.6419 13.6208 14.905 14.0042 15.236 14.324C15.9115 14.9835 16.819 15.3512 17.763 15.348H22V15.654C22.0366 16.3735 21.9271 17.0929 21.6781 17.7688C21.429 18.4448 21.0456 19.0633 20.551 19.587C19.4442 20.5698 17.9951 21.0774 16.517 21ZM6.739 6.875C6.53993 6.87444 6.3486 6.95211 6.20625 7.09128C6.06391 7.23045 5.98193 7.41997 5.978 7.619C5.97755 7.71742 5.99699 7.81492 6.03513 7.90565C6.07328 7.99638 6.12936 8.07847 6.2 8.147C6.34398 8.28875 6.53796 8.36814 6.74 8.368H12.39C12.592 8.36814 12.786 8.28875 12.93 8.147C13.0007 8.07829 13.0568 7.99602 13.0949 7.90512C13.133 7.81423 13.1525 7.71658 13.152 7.618C13.1478 7.4181 13.0649 7.22793 12.9213 7.0888C12.7777 6.94968 12.5849 6.87285 12.385 6.875H6.739Z" fill="#1890FF"/>
<path opacity="0.4" d="M16.037 12.3C16.1337 12.7569 16.3859 13.1662 16.7506 13.458C17.1153 13.7497 17.57 13.906 18.037 13.9H21.287C21.4787 13.8966 21.6612 13.8175 21.7948 13.68C21.9284 13.5425 22.0021 13.3577 22 13.166V10.634C22.0016 10.4418 21.9271 10.2567 21.7928 10.1192C21.6585 9.9817 21.4752 9.9029 21.283 9.9H17.956C17.4302 9.90764 16.929 10.1236 16.5623 10.5004C16.1955 10.8773 15.9933 11.3842 16 11.91C15.9997 12.0409 16.0121 12.1715 16.037 12.3" fill="#1890FF"/>
<path d="M18 12.9C18.5523 12.9 19 12.4523 19 11.9C19 11.3477 18.5523 10.9 18 10.9C17.4477 10.9 17 11.3477 17 11.9C17 12.4523 17.4477 12.9 18 12.9Z" fill="#1890FF"/>
</svg>
