<svg width="0" height="0" class="hidden">

	<symbol xmlns="http://www.w3.org/2000/svg" viewBox="0 0 24 24" id="tiles"><path opacity=".4" d="M16.08 2h3.38A2.55 2.55 0 0 1 22 4.56v3.42a2.55 2.55 0 0 1-2.54 2.55h-3.38a2.55 2.55 0 0 1-2.54-2.55V4.55A2.55 2.55 0 0 1 16.08 2" fill="#fff"/><path d="M16.07 22a2.55 2.55 0 0 1-2.53-2.56v-3.41a2.55 2.55 0 0 1 2.54-2.57h3.38A2.55 2.55 0 0 1 22 16.04v3.41A2.55 2.55 0 0 1 19.46 22h-3.39ZM4.54 22A2.55 2.55 0 0 1 2 19.44v-3.41a2.55 2.55 0 0 1 2.54-2.57h3.38a2.55 2.55 0 0 1 2.54 2.57v3.41A2.55 2.55 0 0 1 7.92 22H4.54Zm0-11.46A2.55 2.55 0 0 1 2 7.96v-3.4A2.55 2.55 0 0 1 4.54 2h3.38a2.55 2.55 0 0 1 2.54 2.56v3.41a2.55 2.55 0 0 1-2.54 2.57H4.54Z" fill="#fff"/></symbol>

	<symbol xmlns="http://www.w3.org/2000/svg" viewBox="0 0 24 24" id="user"><path d="M12 15.18c-4.32 0-8 .68-8 3.4C4 21.3 7.66 22 12 22c4.31 0 8-.68 8-3.4 0-2.72-3.67-3.43-8-3.43Z" fill="#fff"/><path opacity=".4" d="M12 12.58A5.3 5.3 0 1 0 12 2a5.3 5.3 0 0 0 0 10.58" fill="#fff"/></symbol>

	<symbol xmlns="http://www.w3.org/2000/svg" viewBox="0 0 24 24" id="logout"><path opacity=".4" d="M2 6.45A4.5 4.5 0 0 1 6.53 2h4.96A4.48 4.48 0 0 1 16 6.44v11.11A4.5 4.5 0 0 1 11.47 22H6.51A4.48 4.48 0 0 1 2 17.56V6.45Z" fill="#fff"/><path d="m21.78 11.46-2.85-2.91a.74.74 0 0 0-1.06 0 .78.78 0 0 0 0 1.08l1.56 1.6H9.55a.77.77 0 1 0 0 1.54h9.88l-1.55 1.6a.78.78 0 0 0 .24 1.25.74.74 0 0 0 .82-.17l2.84-2.9a.78.78 0 0 0 0-1.1" fill="#fff"/></symbol>

	<symbol xmlns="http://www.w3.org/2000/svg" viewBox="0 0 24 24" id="users"><path d="M11.95 14.54c-3.45 0-6.36.56-6.36 2.74 0 2.17 2.93 2.72 6.36 2.72 3.45 0 6.36-.56 6.36-2.74 0-2.17-2.93-2.72-6.36-2.72Z" fill="#fff"/><path opacity=".4" d="M11.95 12.47a4.2 4.2 0 0 0 2.98-7.21 4.21 4.21 0 1 0-5.97 5.97 4.2 4.2 0 0 0 2.99 1.24" fill="#fff"/><path opacity=".4" d="M21.09 9.22a3.57 3.57 0 0 0-4.14-4.44.14.14 0 0 0-.08.05.1.1 0 0 0 .02.1 5.8 5.8 0 0 1 .08 6.62.16.16 0 0 0 .11.24 3.51 3.51 0 0 0 4-2.57Z" fill="#fff"/><path d="M22.8 14.82a2.75 2.75 0 0 0-2.12-1.3 15.55 15.55 0 0 0-3.27-.28v.01a.05.05 0 0 0 .02.05 4.45 4.45 0 0 1 2.66 4.46.18.18 0 0 0 .2.13c.57-.09 2.06-.4 2.52-1.4a1.92 1.92 0 0 0 0-1.67" fill="#fff"/><path opacity=".4" d="M7.04 4.78a3.51 3.51 0 0 0-3.53 1.34 3.57 3.57 0 0 0 3.41 5.67.16.16 0 0 0 .1-.24 5.84 5.84 0 0 1 .12-6.66.1.1 0 0 0-.01-.06.13.13 0 0 0-.08-.05" fill="#fff"/><path d="M3.32 13.51a2.75 2.75 0 0 0-2.13 1.3 1.92 1.92 0 0 0 0 1.67c.46 1 1.95 1.32 2.52 1.4a.18.18 0 0 0 .2-.2 4.45 4.45 0 0 1 2.68-4.4l.01-.02-.01-.02-.02-.01c-1.1-.02-2.18.07-3.25.28" fill="#fff"/></symbol>

	<symbol xmlns="http://www.w3.org/2000/svg" viewBox="0 0 24 24" id="send"><path d="M21.43 2.58a1.94 1.94 0 0 0-1.93-.5L3.4 6.73a1.91 1.91 0 0 0-1.38 1.5 2.23 2.23 0 0 0 1 2.1l5.04 3.07a1.3 1.3 0 0 0 1.6-.2l5.77-5.75a.73.73 0 0 1 1.06 0 .75.75 0 0 1 0 1.06l-5.77 5.76a1.31 1.31 0 0 0-.2 1.6l3.08 5.06a2 2 0 0 0 1.9.93 1.94 1.94 0 0 0 1.64-1.38L21.9 4.5a1.94 1.94 0 0 0-.48-1.93" fill="#D9D9D9"/><path opacity=".4" d="M7.03 21.57a.75.75 0 0 1 0-1.06l1.36-1.37a.75.75 0 0 1 1.06 1.06L8.1 21.57a.75.75 0 0 1-1.06 0Zm-.79-3.79a.75.75 0 0 1 0-1.06l1.37-1.37a.75.75 0 0 1 1.06 1.06L7.3 17.79a.75.75 0 0 1-1.06 0Zm-3.76-1.2a.75.75 0 0 1 0-1.05l1.37-1.37a.75.75 0 0 1 1.06 1.06L3.54 16.6a.75.75 0 0 1-1.06 0Z" fill="#D9D9D9"/></symbol>

	<symbol xmlns="http://www.w3.org/2000/svg" viewBox="0 0 24 24" id="trash"><path opacity=".4" d="M19.64 9.49c0 .07-.53 6.8-.83 9.64a2.92 2.92 0 0 1-3 2.83 169.33 169.33 0 0 1-7.68 0 2.92 2.92 0 0 1-2.93-2.83c-.31-2.84-.83-9.57-.85-9.64a.8.8 0 0 1 .2-.56.71.71 0 0 1 .52-.23h13.87a.73.73 0 0 1 .52.23.75.75 0 0 1 .18.56" fill="#D9D9D9"/><path d="M21 5.98a.72.72 0 0 0-.71-.74h-2.92a1.28 1.28 0 0 1-1.24-1.01l-.16-.73a1.98 1.98 0 0 0-1.9-1.5H9.94a1.99 1.99 0 0 0-1.92 1.55l-.15.68a1.28 1.28 0 0 1-1.24 1.01H3.71a.72.72 0 0 0-.71.74v.38a.73.73 0 0 0 .71.73H20.3a.73.73 0 0 0 .71-.73v-.38Z" fill="#D9D9D9"/></symbol>

	<symbol xmlns="http://www.w3.org/2000/svg" viewBox="0 0 24 24" id="camera"><path d="M9.22 16.1a3.93 3.93 0 1 1 5.56-5.56 3.93 3.93 0 0 1-5.56 5.57Zm1.05-4.48a2.33 2.33 0 0 0-.7 1.7v.01a2.42 2.42 0 0 0 4.14 1.71c.46-.45.72-1.07.72-1.71a2.43 2.43 0 0 0-4.16-1.71Zm6.44-1.55a.9.9 0 1 1 1.8 0 .9.9 0 0 1-1.8 0Z" fill="#fff"/><path opacity=".4" d="m17.44 6.24-.1-.22-.77-1.61A2.44 2.44 0 0 0 14.35 3H9.64a2.43 2.43 0 0 0-2.21 1.4l-.82 1.72-.06.12a.2.2 0 0 1-.19.12A4.36 4.36 0 0 0 2 10.7v5.93A4.36 4.36 0 0 0 6.36 21h11.28A4.37 4.37 0 0 0 22 16.64v-5.93a4.37 4.37 0 0 0-4.36-4.35.23.23 0 0 1-.2-.12Z" fill="#fff"/></symbol>

	<symbol xmlns="http://www.w3.org/2000/svg" viewBox="0 0 22 22" id="info" fill="none"><path d="M11 21a10 10 0 1 0 0-20 10 10 0 0 0 0 20Z" stroke="#BFBFBF" stroke-width="2" stroke-linecap="round" stroke-linejoin="round"/><path d="M11 15v-4" stroke="#BFBFBF" stroke-width="2" stroke-linecap="round" stroke-linejoin="round"/><path d="M11 7h.01" stroke="#BFBFBF" stroke-width="2" stroke-linecap="round" stroke-linejoin="round"/></symbol>

	<symbol xmlns="http://www.w3.org/2000/svg" viewBox="0 0 24 24" id="wallet"><path d="M16.52 21H7.48a5.63 5.63 0 0 1-4.03-1.41A5.33 5.33 0 0 1 2 15.65V8.34A5.32 5.32 0 0 1 3.45 4.4 5.64 5.64 0 0 1 7.48 3h9.03a5.64 5.64 0 0 1 4.04 1.4A5.32 5.32 0 0 1 22 8.35v.04h-4.24a3.54 3.54 0 0 0-3.57 3.48 3.42 3.42 0 0 0 1.05 2.46 3.6 3.6 0 0 0 2.52 1.03H22v.3a5.33 5.33 0 0 1-1.45 3.94A5.63 5.63 0 0 1 16.52 21ZM6.74 6.87a.76.76 0 0 0-.76.75.73.73 0 0 0 .22.53c.14.14.34.22.54.22h5.65a.77.77 0 0 0 .7-.46.73.73 0 0 0-.17-.82.76.76 0 0 0-.54-.21H6.75Z" fill="#fff"/><path opacity=".4" d="M16.04 12.3a2.02 2.02 0 0 0 2 1.6h3.25a.73.73 0 0 0 .71-.73v-2.54a.73.73 0 0 0-.72-.73h-3.32a1.98 1.98 0 0 0-1.92 2.4" fill="#fff"/><path d="M18 12.9a1 1 0 1 0 0-2 1 1 0 0 0 0 2Z" fill="#fff"/></symbol>

	<symbol xmlns="http://www.w3.org/2000/svg" viewBox="0 0 24 24" id="download"><path opacity=".4" d="M17.554 7.296A4.526 4.526 0 0 1 22 11.887v5.033a4.515 4.515 0 0 1-4.436 4.576H6.448A4.526 4.526 0 0 1 2 16.909v-5.032a4.517 4.517 0 0 1 4.438-4.581h11.116Z" fill="#D9D9D9"/><path d="m12.546 16.037 2.909-2.968a.79.79 0 0 0-.25-1.275.762.762 0 0 0-.839.169l-1.593 1.625V3.282a.77.77 0 1 0-1.54 0v10.309l-1.596-1.626a.762.762 0 0 0-1.089 0 .79.79 0 0 0 0 1.106l2.909 2.968a.76.76 0 0 0 1.091 0" fill="#D9D9D9"/></symbol>

	<symbol xmlns="http://www.w3.org/2000/svg" viewBox="0 0 24 24" id="link" fill="none"><path d="M10.005 12.995a5 5 0 0 0 7.54.54l3-3a5.001 5.001 0 0 0-3.531-8.551 5 5 0 0 0-3.54 1.48l-1.719 1.711" stroke="#D9D9D9" stroke-width="2" stroke-linecap="round" stroke-linejoin="round"/><path d="M14.005 10.995a5.001 5.001 0 0 0-7.54-.54l-3 3a5 5 0 1 0 7.071 7.071l1.709-1.711" stroke="#D9D9D9" stroke-width="2" stroke-linecap="round" stroke-linejoin="round"/></symbol>

	<symbol fill="none" xmlns="http://www.w3.org/2000/svg" viewBox="0 0 16 16" id="plus"><path d="M8 1v14" stroke="#1890FF" stroke-width="2" stroke-linecap="round" stroke-linejoin="round"/><path d="M1 8h14" stroke="#1890FF" stroke-width="2" stroke-linecap="round" stroke-linejoin="round"/></symbol>
</svg>