<svg fill="none" xmlns="http://www.w3.org/2000/svg" viewBox="0 0 218 36"><g clip-path="url(#clip0_44:5)"><path opacity=".4" d="M18 36c9.941 0 18-8.059 18-18S27.941 0 18 0 0 8.059 0 18s8.059 18 18 18Z" fill="#fff"/><path d="M24 36c9.941 0 18-8.059 18-18S33.941 0 24 0 6 8.059 6 18s8.059 18 18 18Z" fill="#fff"/><path opacity=".4" d="M18 17.447c.03 1.403.114 3.802.126 4.067a2.79 2.79 0 0 0 .594 1.54 2.213 2.213 0 0 0 1.855.819c1.114.006 2.34.006 3.534.006 1.193 0 2.358 0 3.34-.006a2.241 2.241 0 0 0 1.853-.819c.35-.44.554-.979.584-1.54.012-.223.072-2.828.108-4.067H18Z" fill="#1890FF"/><path d="M23.547 20.03v.777a.45.45 0 0 0 .9 0v-.777a.45.45 0 0 0-.9 0" fill="#1890FF"/><path d="M25.484 19.87a.45.45 0 0 1-.436-.338 1.08 1.08 0 0 0-1.054-.812 1.096 1.096 0 0 0-1.067.814.453.453 0 0 1-.496.327 10.296 10.296 0 0 1-4.228-1.572.448.448 0 0 1-.203-.376v-2.08a2.29 2.29 0 0 1 2.29-2.284h1.18A1.776 1.776 0 0 1 23.22 12h1.55a1.775 1.775 0 0 1 1.751 1.549h1.186a2.288 2.288 0 0 1 2.287 2.284v2.08a.451.451 0 0 1-.202.376 10.285 10.285 0 0 1-4.246 1.577.491.491 0 0 1-.062.004ZM23.22 12.9a.876.876 0 0 0-.84.649h3.232a.877.877 0 0 0-.84-.649H23.22Z" fill="#1890FF"/><path d="M61.457 25.55a8.062 8.062 0 0 1-3.267-.628 5.628 5.628 0 0 1-2.26-1.709A4.593 4.593 0 0 1 55 20.75h4.245a1.633 1.633 0 0 0 .679 1.181c.43.31.952.47 1.483.452a2.12 2.12 0 0 0 1.231-.3.985.985 0 0 0 .452-.829.92.92 0 0 0-.628-.88 11.657 11.657 0 0 0-2.032-.654 20.701 20.701 0 0 1-2.513-.729 4.511 4.511 0 0 1-1.738-1.232 3.406 3.406 0 0 1-.729-2.287c-.008-.778.22-1.54.653-2.186a4.545 4.545 0 0 1 1.96-1.583 7.601 7.601 0 0 1 3.091-.578 6.121 6.121 0 0 1 4.147 1.307A5.064 5.064 0 0 1 67.06 15.9h-3.97a1.694 1.694 0 0 0-.653-1.156 2.17 2.17 0 0 0-1.407-.427 1.9 1.9 0 0 0-1.156.3.89.89 0 0 0-.4.779.966.966 0 0 0 .628.9c.649.266 1.322.467 2.01.6.863.21 1.71.478 2.538.8a4.13 4.13 0 0 1 1.709 1.257c.531.65.808 1.472.779 2.312a3.7 3.7 0 0 1-.708 2.224 4.514 4.514 0 0 1-1.985 1.508 7.5 7.5 0 0 1-2.988.553Z" fill="#fff"/><path d="M68.916 18.338a7.938 7.938 0 0 1 .88-3.82 6.3 6.3 0 0 1 2.488-2.513 7.522 7.522 0 0 1 3.669-.88 6.9 6.9 0 0 1 4.4 1.382 6.5 6.5 0 0 1 2.337 3.9h-4.581a2.2 2.2 0 0 0-2.237-1.608 2.244 2.244 0 0 0-1.885.93 4.187 4.187 0 0 0-.7 2.614 4.3 4.3 0 0 0 .7 2.639 2.267 2.267 0 0 0 1.885.9 2.2 2.2 0 0 0 2.237-1.608h4.574a6.583 6.583 0 0 1-2.337 3.87 6.881 6.881 0 0 1-4.4 1.407 7.522 7.522 0 0 1-3.669-.88 6.3 6.3 0 0 1-2.486-2.512 7.939 7.939 0 0 1-.875-3.821Z" fill="#fff"/><path d="M91.364 25.55a7.814 7.814 0 0 1-3.719-.88 6.546 6.546 0 0 1-2.588-2.511 7.59 7.59 0 0 1-.93-3.82 7.38 7.38 0 0 1 .955-3.795 6.456 6.456 0 0 1 2.614-2.538 8.3 8.3 0 0 1 7.439 0 6.456 6.456 0 0 1 2.614 2.538 7.38 7.38 0 0 1 .955 3.795 7.366 7.366 0 0 1-.98 3.82 6.463 6.463 0 0 1-2.639 2.513 7.813 7.813 0 0 1-3.721.878Zm0-3.719a2.76 2.76 0 0 0 2.086-.9 3.565 3.565 0 0 0 .88-2.588 3.627 3.627 0 0 0-.854-2.588 2.682 2.682 0 0 0-2.061-.9 2.71 2.71 0 0 0-2.086.9c-.6.723-.897 1.65-.829 2.588a3.772 3.772 0 0 0 .8 2.588 2.681 2.681 0 0 0 2.064.9Z" fill="#fff"/><path d="M105.28 13.311a4.673 4.673 0 0 1 1.734-1.583 5.323 5.323 0 0 1 2.588-.6c1.11-.013 2.2.293 3.141.88a5.999 5.999 0 0 1 2.212 2.513 8.265 8.265 0 0 1 .829 3.795 8.425 8.425 0 0 1-.829 3.82 6.178 6.178 0 0 1-2.212 2.538 5.804 5.804 0 0 1-3.141.88 5.416 5.416 0 0 1-2.588-.6 4.756 4.756 0 0 1-1.734-1.558v8.645h-4.3V11.326h4.3v1.985Zm6.132 5a3.399 3.399 0 0 0-.9-2.513 2.892 2.892 0 0 0-2.186-.93 2.935 2.935 0 0 0-2.186.93 3.544 3.544 0 0 0-.879 2.538c-.051.929.264 1.84.879 2.538a3.039 3.039 0 0 0 3.375.688c.375-.16.715-.394.998-.688a3.574 3.574 0 0 0 .899-2.562v-.001Z" fill="#fff"/><path d="M131.258 18.111a11 11 0 0 1-.075 1.257h-9.726c.016.75.311 1.467.829 2.01a2.644 2.644 0 0 0 1.835.679 2.257 2.257 0 0 0 2.237-1.357h4.574a6.399 6.399 0 0 1-3.566 4.222 7.383 7.383 0 0 1-3.091.628 7.522 7.522 0 0 1-3.669-.88 6.256 6.256 0 0 1-2.513-2.513 7.767 7.767 0 0 1-.9-3.82 7.935 7.935 0 0 1 .88-3.82 6.257 6.257 0 0 1 2.513-2.513 7.577 7.577 0 0 1 3.694-.88 7.502 7.502 0 0 1 3.619.854 6.054 6.054 0 0 1 2.463 2.438 7.319 7.319 0 0 1 .896 3.695Zm-4.4-1.131a2.206 2.206 0 0 0-.754-1.759 3.019 3.019 0 0 0-3.719-.025 2.818 2.818 0 0 0-.9 1.784h5.373Z" fill="#fff"/><path d="M136.188 14.141a5.398 5.398 0 0 1 2.061-2.01 6.1 6.1 0 0 1 3.091-.779 6.428 6.428 0 0 1 3.342.88 6.208 6.208 0 0 1 2.337 2.488c.589 1.14.883 2.41.854 3.694a7.91 7.91 0 0 1-.854 3.719 6.302 6.302 0 0 1-5.68 3.443 6.2 6.2 0 0 1-3.141-.779 5.318 5.318 0 0 1-2.01-1.985v2.538h-2.287V6.752h2.287v7.389Zm9.349 4.272a5.591 5.591 0 0 0-.628-2.714 4.33 4.33 0 0 0-1.709-1.759 4.627 4.627 0 0 0-2.337-.6 4.569 4.569 0 0 0-2.337.628 4.499 4.499 0 0 0-1.709 1.784 5.54 5.54 0 0 0-.628 2.689c-.021.95.195 1.892.628 2.739a4.468 4.468 0 0 0 4.046 2.387 4.627 4.627 0 0 0 2.337-.6 4.499 4.499 0 0 0 1.709-1.784c.436-.857.653-1.81.63-2.771l-.002.001Z" fill="#fff"/><path d="M163.099 11.577v13.772h-2.287v-2.036a4.525 4.525 0 0 1-1.835 1.659 5.652 5.652 0 0 1-2.563.578 6.269 6.269 0 0 1-2.89-.653 4.997 4.997 0 0 1-2.036-2.01 6.67 6.67 0 0 1-.729-3.242v-8.068h2.262v7.765a4.438 4.438 0 0 0 1.03 3.141 3.7 3.7 0 0 0 2.815 1.081 3.757 3.757 0 0 0 2.891-1.135 4.655 4.655 0 0 0 1.055-3.292v-7.56h2.287Z" fill="#fff"/><path d="M168.142 9.34a1.5 1.5 0 0 1-1.106-.452 1.505 1.505 0 0 1-.452-1.106 1.503 1.503 0 0 1 .452-1.106 1.507 1.507 0 0 1 1.106-.452 1.4 1.4 0 0 1 1.055.452 1.505 1.505 0 0 1 .452 1.106 1.503 1.503 0 0 1-.452 1.106 1.399 1.399 0 0 1-1.055.452Zm1.106 2.237v13.772h-2.287V11.577h2.287Z" fill="#fff"/><path d="M175.432 6.752v18.6h-2.287v-18.6h2.287Z" fill="#fff"/><path d="M178.475 18.412a7.661 7.661 0 0 1 .854-3.694 6.208 6.208 0 0 1 2.337-2.488 6.561 6.561 0 0 1 3.368-.88 6.147 6.147 0 0 1 2.991.754 5.26 5.26 0 0 1 2.111 1.935V6.752h2.312v18.6h-2.312V22.76a5.436 5.436 0 0 1-2.01 2.036 6.06 6.06 0 0 1-3.116.779 6.228 6.228 0 0 1-5.68-3.443 7.902 7.902 0 0 1-.855-3.72Zm11.661.025a5.591 5.591 0 0 0-.628-2.714 4.328 4.328 0 0 0-1.709-1.759 4.483 4.483 0 0 0-2.337-.628 4.627 4.627 0 0 0-2.337.6 4.382 4.382 0 0 0-1.684 1.759 5.591 5.591 0 0 0-.628 2.714c-.022.96.193 1.909.628 2.764.388.738.97 1.355 1.684 1.784a4.83 4.83 0 0 0 4.674 0 4.499 4.499 0 0 0 1.709-1.784 5.747 5.747 0 0 0 .628-2.735v-.001Z" fill="#fff"/><path d="M208.878 17.935c-.001.462-.026.923-.075 1.382h-11.008a4.278 4.278 0 0 0 1.307 3.125 4.285 4.285 0 0 0 3.166 1.202 4.227 4.227 0 0 0 2.463-.679 3.7 3.7 0 0 0 1.407-1.86h2.463a5.983 5.983 0 0 1-2.212 3.242 6.724 6.724 0 0 1-4.121 1.231 7.034 7.034 0 0 1-3.518-.88 6.273 6.273 0 0 1-2.413-2.488 7.831 7.831 0 0 1-.88-3.77 7.865 7.865 0 0 1 .854-3.745 5.936 5.936 0 0 1 2.387-2.463 7.132 7.132 0 0 1 3.569-.88 6.91 6.91 0 0 1 3.468.854 5.812 5.812 0 0 1 2.312 2.362 6.778 6.778 0 0 1 .831 3.367Zm-2.362-.477a4.155 4.155 0 0 0-.578-2.237 3.633 3.633 0 0 0-1.583-1.432 4.722 4.722 0 0 0-2.186-.5 4.285 4.285 0 0 0-2.965 1.106 4.53 4.53 0 0 0-1.382 3.066l8.694-.003Z" fill="#fff"/><path d="M214.184 13.814a4.412 4.412 0 0 1 1.709-1.835 5.39 5.39 0 0 1 2.739-.653v2.362h-.6c-2.563 0-3.845 1.39-3.845 4.172v7.489H211.9V11.577h2.287l-.003 2.237Z" fill="#fff"/></g><defs><clipPath id="clip0_44:5"><path fill="#fff" d="M0 0h218v36H0z"/></clipPath></defs></svg>