<svg fill="none" xmlns="http://www.w3.org/2000/svg" viewBox="0 0 249 60"><g clip-path="url(#clip0_44:5)"><path opacity=".4" d="M30 60c16.569 0 30-13.431 30-30C60 13.431 46.569 0 30 0 13.431 0 0 13.431 0 30c0 16.569 13.431 30 30 30Z" fill="#fff"/><path d="M40 60c16.569 0 30-13.431 30-30C70 13.431 56.569 0 40 0 23.431 0 10 13.431 10 30c0 16.569 13.431 30 30 30Z" fill="#fff"/><path opacity=".4" d="M30 29.078c.05 2.338.19 6.337.21 6.778.063.936.409 1.831.99 2.568a3.69 3.69 0 0 0 3.092 1.364c1.856.01 3.9.01 5.889.01 1.989 0 3.931 0 5.566-.01a3.732 3.732 0 0 0 3.089-1.364 4.515 4.515 0 0 0 .974-2.568c.02-.371.12-4.712.18-6.778H30Z" fill="#1890FF"/><path d="M39.245 33.384v1.294a.75.75 0 1 0 1.5 0v-1.294a.75.75 0 1 0-1.5 0" fill="#1890FF"/><path d="M42.473 33.117a.749.749 0 0 1-.727-.564A1.8 1.8 0 0 0 39.99 31.2a1.826 1.826 0 0 0-1.779 1.357.754.754 0 0 1-.826.545 17.16 17.16 0 0 1-7.047-2.62.746.746 0 0 1-.338-.627v-3.466a3.817 3.817 0 0 1 3.817-3.808h1.967A2.96 2.96 0 0 1 38.7 20h2.582a2.957 2.957 0 0 1 2.92 2.581h1.977a3.812 3.812 0 0 1 3.811 3.808v3.466a.752.752 0 0 1-.336.626 17.142 17.142 0 0 1-7.078 2.629.805.805 0 0 1-.103.007ZM38.7 21.5a1.46 1.46 0 0 0-1.4 1.081h5.387a1.46 1.46 0 0 0-1.4-1.081H38.7Z" fill="#1890FF"/><path d="M92.306 36.55a8.062 8.062 0 0 1-3.267-.628 5.628 5.628 0 0 1-2.26-1.709 4.593 4.593 0 0 1-.93-2.463h4.245a1.633 1.633 0 0 0 .679 1.181c.43.31.952.47 1.483.452a2.12 2.12 0 0 0 1.231-.3.985.985 0 0 0 .452-.829.92.92 0 0 0-.628-.88 11.657 11.657 0 0 0-2.032-.654 20.701 20.701 0 0 1-2.513-.729 4.511 4.511 0 0 1-1.738-1.232 3.406 3.406 0 0 1-.729-2.287c-.008-.778.22-1.54.653-2.186a4.545 4.545 0 0 1 1.96-1.583 7.601 7.601 0 0 1 3.091-.578 6.121 6.121 0 0 1 4.147 1.307 5.064 5.064 0 0 1 1.759 3.468h-3.97a1.694 1.694 0 0 0-.653-1.156 2.17 2.17 0 0 0-1.407-.427 1.9 1.9 0 0 0-1.156.3.89.89 0 0 0-.4.779.966.966 0 0 0 .628.9c.649.266 1.322.467 2.01.6.863.21 1.71.478 2.538.8a4.13 4.13 0 0 1 1.709 1.257c.531.65.808 1.472.779 2.312a3.7 3.7 0 0 1-.708 2.224 4.514 4.514 0 0 1-1.985 1.508 7.5 7.5 0 0 1-2.988.553Z" fill="#fff"/><path d="M99.765 29.338a7.939 7.939 0 0 1 .88-3.82 6.3 6.3 0 0 1 2.488-2.513 7.521 7.521 0 0 1 3.669-.88 6.9 6.9 0 0 1 4.4 1.382 6.5 6.5 0 0 1 2.337 3.9h-4.581a2.199 2.199 0 0 0-2.237-1.608 2.242 2.242 0 0 0-1.885.93 4.191 4.191 0 0 0-.7 2.614c-.06.932.186 1.859.7 2.639a2.27 2.27 0 0 0 1.885.9 2.198 2.198 0 0 0 2.237-1.608h4.574a6.587 6.587 0 0 1-2.337 3.87 6.882 6.882 0 0 1-4.4 1.407 7.521 7.521 0 0 1-3.669-.88 6.302 6.302 0 0 1-2.486-2.512 7.933 7.933 0 0 1-.875-3.821Z" fill="#fff"/><path d="M122.213 36.55a7.816 7.816 0 0 1-3.719-.88 6.547 6.547 0 0 1-2.588-2.511 7.59 7.59 0 0 1-.93-3.82 7.38 7.38 0 0 1 .955-3.795 6.458 6.458 0 0 1 2.614-2.538 8.298 8.298 0 0 1 7.439 0 6.458 6.458 0 0 1 2.614 2.538 7.38 7.38 0 0 1 .955 3.795 7.36 7.36 0 0 1-.98 3.82 6.463 6.463 0 0 1-2.639 2.513 7.811 7.811 0 0 1-3.721.878Zm0-3.719a2.76 2.76 0 0 0 2.086-.9 3.56 3.56 0 0 0 .88-2.588 3.626 3.626 0 0 0-.854-2.588 2.683 2.683 0 0 0-2.061-.9 2.71 2.71 0 0 0-2.086.9c-.6.723-.897 1.65-.829 2.588a3.771 3.771 0 0 0 .8 2.588 2.683 2.683 0 0 0 2.064.9Z" fill="#fff"/><path d="M136.129 24.311a4.673 4.673 0 0 1 1.734-1.583 5.323 5.323 0 0 1 2.588-.6c1.11-.013 2.2.293 3.141.88a5.999 5.999 0 0 1 2.212 2.513 8.265 8.265 0 0 1 .829 3.795 8.425 8.425 0 0 1-.829 3.82 6.178 6.178 0 0 1-2.212 2.538 5.804 5.804 0 0 1-3.141.88 5.416 5.416 0 0 1-2.588-.6 4.756 4.756 0 0 1-1.734-1.558v8.645h-4.3V22.326h4.3v1.985Zm6.132 5a3.399 3.399 0 0 0-.9-2.513 2.892 2.892 0 0 0-2.186-.93 2.935 2.935 0 0 0-2.186.93 3.544 3.544 0 0 0-.879 2.538c-.051.929.264 1.84.879 2.538a3.039 3.039 0 0 0 3.375.688c.375-.16.715-.394.998-.688a3.574 3.574 0 0 0 .899-2.562v-.001Z" fill="#fff"/><path d="M162.107 29.111a11 11 0 0 1-.075 1.257h-9.726c.016.75.311 1.467.829 2.01a2.644 2.644 0 0 0 1.835.679 2.257 2.257 0 0 0 2.237-1.357h4.574a6.399 6.399 0 0 1-3.566 4.222 7.383 7.383 0 0 1-3.091.628 7.522 7.522 0 0 1-3.669-.88 6.256 6.256 0 0 1-2.513-2.513 7.767 7.767 0 0 1-.9-3.82 7.935 7.935 0 0 1 .88-3.82 6.257 6.257 0 0 1 2.513-2.513 7.577 7.577 0 0 1 3.694-.88 7.502 7.502 0 0 1 3.619.854 6.054 6.054 0 0 1 2.463 2.438 7.319 7.319 0 0 1 .896 3.695Zm-4.4-1.131a2.206 2.206 0 0 0-.754-1.759 3.019 3.019 0 0 0-3.719-.025 2.818 2.818 0 0 0-.9 1.784h5.373Z" fill="#fff"/><path d="M167.037 25.141a5.398 5.398 0 0 1 2.061-2.01 6.1 6.1 0 0 1 3.091-.779 6.428 6.428 0 0 1 3.342.88 6.208 6.208 0 0 1 2.337 2.488c.589 1.14.883 2.41.854 3.694a7.91 7.91 0 0 1-.854 3.719 6.302 6.302 0 0 1-5.68 3.443 6.2 6.2 0 0 1-3.141-.779 5.318 5.318 0 0 1-2.01-1.985v2.538h-2.287V17.752h2.287v7.389Zm9.349 4.272a5.591 5.591 0 0 0-.628-2.714 4.33 4.33 0 0 0-1.709-1.759 4.627 4.627 0 0 0-2.337-.6 4.569 4.569 0 0 0-2.337.628 4.499 4.499 0 0 0-1.709 1.784 5.54 5.54 0 0 0-.628 2.689c-.021.95.195 1.892.628 2.739a4.468 4.468 0 0 0 4.046 2.387 4.627 4.627 0 0 0 2.337-.6 4.499 4.499 0 0 0 1.709-1.784c.436-.857.653-1.81.63-2.771l-.002.001Z" fill="#fff"/><path d="M193.948 22.577v13.772h-2.287v-2.036a4.525 4.525 0 0 1-1.835 1.659 5.652 5.652 0 0 1-2.563.578 6.269 6.269 0 0 1-2.89-.653 4.997 4.997 0 0 1-2.036-2.01 6.67 6.67 0 0 1-.729-3.242v-8.068h2.262v7.765a4.438 4.438 0 0 0 1.03 3.141 3.7 3.7 0 0 0 2.815 1.081 3.757 3.757 0 0 0 2.891-1.135 4.655 4.655 0 0 0 1.055-3.292v-7.56h2.287Z" fill="#fff"/><path d="M198.991 20.34a1.501 1.501 0 0 1-1.106-.452 1.506 1.506 0 0 1-.452-1.106 1.503 1.503 0 0 1 .452-1.106 1.507 1.507 0 0 1 1.106-.452 1.4 1.4 0 0 1 1.055.452 1.505 1.505 0 0 1 .452 1.106 1.503 1.503 0 0 1-.452 1.106 1.399 1.399 0 0 1-1.055.452Zm1.106 2.237v13.772h-2.287V22.577h2.287Z" fill="#fff"/><path d="M206.281 17.752v18.6h-2.287v-18.6h2.287Z" fill="#fff"/><path d="M209.324 29.412a7.661 7.661 0 0 1 .854-3.694 6.208 6.208 0 0 1 2.337-2.488 6.561 6.561 0 0 1 3.368-.88 6.147 6.147 0 0 1 2.991.754 5.26 5.26 0 0 1 2.111 1.935v-7.287h2.312v18.6h-2.312V33.76a5.436 5.436 0 0 1-2.01 2.036 6.06 6.06 0 0 1-3.116.779 6.228 6.228 0 0 1-5.68-3.443 7.902 7.902 0 0 1-.855-3.72Zm11.661.025a5.591 5.591 0 0 0-.628-2.714 4.328 4.328 0 0 0-1.709-1.759 4.483 4.483 0 0 0-2.337-.628 4.627 4.627 0 0 0-2.337.6 4.382 4.382 0 0 0-1.684 1.759 5.591 5.591 0 0 0-.628 2.714c-.022.96.193 1.909.628 2.764.388.737.97 1.355 1.684 1.784a4.83 4.83 0 0 0 4.674 0 4.499 4.499 0 0 0 1.709-1.784 5.747 5.747 0 0 0 .628-2.735v-.001Z" fill="#fff"/><path d="M239.727 28.935c-.001.462-.026.923-.075 1.382h-11.008a4.278 4.278 0 0 0 1.307 3.125 4.285 4.285 0 0 0 3.166 1.202 4.227 4.227 0 0 0 2.463-.679 3.7 3.7 0 0 0 1.407-1.86h2.463a5.983 5.983 0 0 1-2.212 3.242 6.724 6.724 0 0 1-4.121 1.231 7.034 7.034 0 0 1-3.518-.88 6.273 6.273 0 0 1-2.413-2.488 7.831 7.831 0 0 1-.88-3.77 7.865 7.865 0 0 1 .854-3.745 5.936 5.936 0 0 1 2.387-2.463 7.132 7.132 0 0 1 3.569-.88 6.91 6.91 0 0 1 3.468.854 5.812 5.812 0 0 1 2.312 2.362 6.778 6.778 0 0 1 .831 3.367Zm-2.362-.477a4.155 4.155 0 0 0-.578-2.237 3.633 3.633 0 0 0-1.583-1.432 4.722 4.722 0 0 0-2.186-.5 4.285 4.285 0 0 0-2.965 1.106 4.53 4.53 0 0 0-1.382 3.066l8.694-.003Z" fill="#fff"/><path d="M245.033 24.814a4.412 4.412 0 0 1 1.709-1.835 5.39 5.39 0 0 1 2.739-.653v2.362h-.6c-2.563 0-3.845 1.39-3.845 4.172v7.489h-2.287V22.577h2.287l-.003 2.237Z" fill="#fff"/></g><defs><clipPath id="clip0_44:5"><path fill="#fff" d="M0 0h249v60H0z"/></clipPath></defs></svg>